
<svg version="1.1" id="Layer_1" xmlns="http://www.w3.org/2000/svg" xmlns:xlink="http://www.w3.org/1999/xlink" x="0px" y="0px"
	 viewBox="0 0 82 24" style="enable-background:new 0 0 82 24;" xml:space="preserve">
<style type="text/css">
	.st0{enable-background:new    ;}
	.st1{fill:#292929;}
</style>
<g class="st0">
	<path class="st1" d="M8,4c2.8,0,4.8,1.7,4.8,4.8c0,3.1-2,4.8-4.8,4.8H4.6V19H1.5V4H8z M4.6,10.9h3c1.2,0,2.1-0.7,2.1-2.1
		S8.8,6.8,7.6,6.8h-3V10.9z"/>
	<path class="st1" d="M14.8,19V4h3.1v15H14.8z"/>
	<path class="st1" d="M35.1,9.5l-3.2,0.3c-0.4-2.1-1.9-3.2-4-3.2c-2.6,0-4.4,1.9-4.4,5c0,3.2,1.9,5,4.4,5c2,0,3.6-1.1,4-3.2l3.2,0.3
		c-0.6,3.5-3.5,5.6-7.1,5.6c-4.4,0-7.6-2.9-7.6-7.7c0-4.8,3.2-7.7,7.6-7.7C31.6,3.8,34.6,6,35.1,9.5z"/>
	<path class="st1" d="M50.2,19h-3.6l-4.2-6.4l-1.8,2.2V19h-3.1V4h3.1v6.2L45.6,4h4l-5.1,6.1L50.2,19z"/>
	<path class="st1" d="M62.5,8.4l-3.2,0.2c0-1.3-0.9-2.1-2.3-2.1c-1.4,0-2.2,0.7-2.2,1.8c0,1.1,0.9,1.5,2.9,1.9
		c3.1,0.8,5.1,1.7,5.1,4.4c0,3.2-2.5,4.6-5.5,4.6c-3.5,0-6-1.7-6-4.8l3.1-0.2c0.1,1.4,1.2,2.3,2.9,2.3c1.4,0,2.4-0.5,2.4-1.7
		c0-1.1-1.1-1.6-3.1-2.1c-2.7-0.7-4.9-1.5-4.9-4.4c0-2.5,1.7-4.6,5.3-4.6C60.2,3.8,62.4,5.5,62.5,8.4z"/>
	<path class="st1" d="M72.6,19h-3.1v-5.8L63.9,4h3.6l3.6,6.1L74.7,4h3.6l-5.7,9.2V19z"/>
	<path class="st1" d="M80.4,17.5c0,1-0.8,1.8-1.8,1.8c-1,0-1.8-0.8-1.8-1.8c0-1,0.8-1.8,1.8-1.8C79.6,15.7,80.4,16.5,80.4,17.5z"/>
</g>
</svg>
